<svg id="Capa_1" enable-background="new 0 0 512 512" height="512" viewBox="0 0 512 512" width="512" xmlns="http://www.w3.org/2000/svg"><g><path d="m497 360h-46v-165c0-8.284-6.716-15-15-15h-75v-165c0-8.284-6.716-15-15-15h-180c-8.284 0-15 6.716-15 15v165h-75c-8.284 0-15 6.716-15 15v165h-46c-8.284 0-15 6.716-15 15v60c0 8.284 6.716 15 15 15h16v47c0 8.284 6.716 15 15 15h60c8.284 0 15-6.716 15-15v-47h90v47c0 8.284 6.716 15 15 15h60c8.284 0 15-6.716 15-15v-47h90v47c0 8.284 6.716 15 15 15h60c8.284 0 15-6.716 15-15v-47h16c8.284 0 15-6.716 15-15v-60c0-8.284-6.716-15-15-15zm-76 0h-150v-150h30v55c0 5.532 3.045 10.615 7.922 13.225s10.796 2.324 15.398-.744l21.68-14.453 21.68 14.453c2.51 1.673 5.411 2.519 8.321 2.519 2.427 0 4.859-.588 7.077-1.775 4.877-2.61 7.922-7.693 7.922-13.225v-55h30zm-60-150v26.972l-6.68-4.453c-2.519-1.679-5.42-2.519-8.32-2.519s-5.801.84-8.32 2.519l-6.68 4.453v-26.972zm-90-180v26.972l-6.68-4.453c-2.519-1.679-5.42-2.519-8.32-2.519s-5.801.84-8.32 2.519l-6.68 4.453v-26.972zm-90 0h30v55c0 5.532 3.045 10.615 7.922 13.225 4.878 2.61 10.796 2.324 15.398-.744l21.68-14.453 21.68 14.453c2.51 1.673 5.411 2.519 8.321 2.519 2.427 0 4.859-.588 7.077-1.775 4.877-2.61 7.922-7.693 7.922-13.225v-55h30v150h-150zm0 180v26.972l-6.68-4.453c-2.519-1.679-5.42-2.519-8.32-2.519s-5.801.84-8.32 2.519l-6.68 4.453v-26.972zm-90 0h30v55c0 5.532 3.045 10.615 7.922 13.225s10.796 2.324 15.398-.744l21.68-14.453 21.68 14.453c2.51 1.673 5.411 2.519 8.321 2.519 2.427 0 4.859-.588 7.077-1.775 4.877-2.61 7.922-7.693 7.922-13.225v-55h30v150h-150zm0 272h-30v-32h30zm180 0h-30v-32h30zm180 0h-30v-32h30zm31-62h-452v-30h452z"/></g></svg>